<svg width="104" height="102" xmlns="http://www.w3.org/2000/svg" xmlns:xlink="http://www.w3.org/1999/xlink" xml:space="preserve" overflow="hidden"><g transform="translate(-588 -309)"><path d="M692 411 692 368.727 672.114 368.727C672.114 362.856 672.803 357.545 674.182 352.794 675.561 348.044 677.602 343.507 680.307 339.184 683.01 334.86 686.909 331.257 692 328.375L692 309C682.242 313.27 674.288 318.874 668.136 325.813 661.985 332.752 657.424 340.358 654.455 348.631 651.485 356.904 650 368.941 650 384.74L650 411 692 411ZM630 411 630 368.727 610.114 368.727C610.114 362.856 610.803 357.545 612.182 352.794 613.561 348.044 615.602 343.507 618.307 339.184 621.01 334.86 624.909 331.257 630 328.375L630 309C620.348 313.27 612.42 318.874 606.216 325.813 600.01 332.752 595.424 340.358 592.455 348.631 589.485 356.904 588 368.941 588 384.74L588 411 630 411Z" fill="#FFFFFF"/></g></svg>