<svg width="48" height="48" xmlns="http://www.w3.org/2000/svg" xmlns:xlink="http://www.w3.org/1999/xlink" xml:space="preserve" overflow="hidden"><g transform="translate(-359 -246)"><path d="M388.584 258.68C389.802 258.604 390.728 257.555 390.653 256.337 390.577 255.12 389.528 254.193 388.311 254.269 387.093 254.344 386.167 255.393 386.242 256.611 386.242 256.611 386.242 256.611 386.242 256.611 386.318 257.829 387.366 258.755 388.584 258.68Z" fill="#7B211D"/><path d="M401.5 249.34 396.5 255 396.25 260.193 393.087 264.437C393.011 264.352 392.919 264.282 392.818 264.23L390.262 263 388.871 261.507 393.695 261.207C394.217 261.174 394.614 260.725 394.582 260.203 394.549 259.681 394.1 259.285 393.578 259.317L387.928 259.667 387.216 259.091C387.189 259.068 387.163 259.042 387.134 259.02 387.105 258.997 387.091 258.99 387.07 258.974L387.018 258.931 387.018 258.935C386.062 258.272 384.755 258.465 384.031 259.376L380.95 263.258C380.859 263.373 380.78 263.496 380.714 263.627L380.423 264.192C380.377 264.297 380.345 264.407 380.328 264.52L379.605 269.539 376.791 272.932C376.346 273.469 376.42 274.265 376.957 274.71 377.493 275.155 378.289 275.081 378.734 274.544L381.776 270.878C381.924 270.698 382.02 270.482 382.053 270.251L382.539 266.882 385.665 269.01 385.392 273.372C385.375 273.667 385.462 273.958 385.639 274.194L383.5 274.5 377 280 376 284 370 285 368 287.5 364 288.5 363 291 403.5 291 403.5 248.5ZM388.164 269.521 388.23 268.451C388.259 268.005 388.05 267.578 387.681 267.328L384.876 265.419 387.2 262.492 389 264.422C389.08 264.508 389.176 264.578 389.282 264.629L391.108 265.508 389 266.3ZM401.5 276 399 277 396.5 275 392.5 275.5 389.5 272.5 390.675 267.807 394.004 266.555 398.21 260.91 398.442 256 401.5 252.512Z" fill="#7B211D"/></g></svg>