<svg width="48" height="48" xmlns="http://www.w3.org/2000/svg" xmlns:xlink="http://www.w3.org/1999/xlink" xml:space="preserve" overflow="hidden"><g transform="translate(-493 -252)"><path d="M500.5 279.81C500.499 278.374 501.081 276.999 502.113 276 500.667 273.598 501.442 270.479 503.845 269.033 503.966 268.959 504.091 268.891 504.219 268.828 503.556 266.606 504.821 264.266 507.044 263.604 507.082 263.592 507.12 263.582 507.158 263.572 507.322 261.133 509.432 259.289 511.871 259.453 514.194 259.609 515.999 261.538 516 263.866L516 288.445C516 290.279 514.514 291.767 512.679 291.767 511.227 291.768 509.943 290.825 509.509 289.439 506.885 290.016 504.29 288.356 503.713 285.732 503.638 285.387 503.599 285.035 503.6 284.681 503.6 284.666 503.6 284.651 503.6 284.637 501.712 283.772 500.501 281.886 500.5 279.81Z" fill="#7B211D"/><path d="M531.145 262.621C530.593 262.622 530.145 262.174 530.145 261.622 530.145 261.357 530.25 261.102 530.438 260.914L532.558 258.793C532.949 258.402 533.582 258.402 533.973 258.793 534.363 259.183 534.363 259.816 533.973 260.207L531.85 262.328C531.663 262.516 531.41 262.621 531.145 262.621Z" fill="#7B211D"/><path d="M534.596 269.334C534.044 269.335 533.596 268.887 533.595 268.335 533.594 267.932 533.836 267.569 534.206 267.413L537.341 266.087C537.845 265.86 538.437 266.085 538.664 266.589 538.89 267.092 538.666 267.684 538.162 267.911 538.148 267.917 538.135 267.923 538.12 267.928L534.985 269.254C534.862 269.307 534.73 269.334 534.596 269.334Z" fill="#7B211D"/><path d="M539 276.767 536.231 276.767C535.679 276.767 535.231 276.319 535.231 275.767 535.231 275.214 535.679 274.767 536.231 274.767L539 274.767C539.552 274.767 540 275.214 540 275.767 540 276.319 539.552 276.767 539 276.767Z" fill="#7B211D"/><path d="M538.497 285.844C538.354 285.844 538.213 285.813 538.083 285.754L535.427 284.541C534.925 284.311 534.704 283.718 534.933 283.216 535.163 282.713 535.757 282.492 536.259 282.721L538.914 283.934C539.416 284.163 539.638 284.756 539.409 285.259 539.246 285.616 538.89 285.845 538.497 285.844Z" fill="#7B211D"/><path d="M533.577 293.343C533.312 293.343 533.057 293.238 532.87 293.05L530.75 290.928C530.353 290.545 530.342 289.912 530.725 289.514 531.109 289.117 531.742 289.106 532.139 289.49 532.148 289.498 532.156 289.506 532.164 289.514L534.286 291.635C534.676 292.026 534.677 292.659 534.286 293.05 534.099 293.238 533.844 293.343 533.578 293.343Z" fill="#7B211D"/><path d="M533.5 279.81C533.501 278.374 532.919 276.999 531.888 276 533.333 273.598 532.558 270.478 530.156 269.033 530.034 268.959 529.909 268.891 529.781 268.828 530.444 266.606 529.179 264.266 526.956 263.604 526.919 263.592 526.881 263.582 526.843 263.572 526.682 261.132 524.575 259.285 522.136 259.445 519.807 259.598 517.997 261.533 518 263.866L518 288.445C518.001 290.28 519.488 291.767 521.323 291.766 522.774 291.766 524.057 290.823 524.492 289.439 527.115 290.016 529.71 288.357 530.287 285.733 530.362 285.388 530.401 285.035 530.4 284.681 530.4 284.666 530.4 284.651 530.4 284.637 532.288 283.772 533.499 281.886 533.5 279.81ZM524.85 279.967C524.85 279.967 520.815 276.882 520.815 274.389 520.815 272.728 523.354 270.947 524.85 273.914 526.346 270.947 528.885 272.728 528.885 274.389 528.887 276.882 524.85 279.967 524.85 279.967Z" fill="#7B211D"/></g></svg>