<svg width="48" height="48" xmlns="http://www.w3.org/2000/svg" xmlns:xlink="http://www.w3.org/1999/xlink" xml:space="preserve" overflow="hidden"><g transform="translate(-218 -274)"><path d="M257.25 282.75 256.75 278.25 251.25 283.75 251.55 286.35 243.55 294.35C242.85 294 242.05 293.75 241.2 293.75 238.45 293.75 236.2 296 236.2 298.75 236.2 301.5 238.45 303.75 241.2 303.75 243.95 303.75 246.2 301.5 246.2 298.75 246.2 297.9 246 297.15 245.65 296.45L253.65 288.45 256.25 288.75 261.75 283.25 257.25 282.75Z" fill="#7B211D"/><path d="M257.65 290.15 257 290.85 256.05 290.75 255 290.6C256.4 293 257.25 295.75 257.25 298.75 257.25 307.55 250.05 314.75 241.25 314.75 232.45 314.75 225.25 307.55 225.25 298.75 225.25 289.95 232.45 282.75 241.25 282.75 244.2 282.75 247 283.55 249.4 285L249.3 284 249.15 283 249.85 282.3 250.2 281.95C247.5 280.55 244.5 279.75 241.25 279.75 230.75 279.75 222.25 288.25 222.25 298.75 222.25 309.25 230.75 317.75 241.25 317.75 251.75 317.75 260.25 309.25 260.25 298.75 260.25 295.5 259.45 292.5 258 289.85L257.65 290.15Z" fill="#7B211D"/><path d="M249.6 295.35C250.05 296.4 250.25 297.55 250.25 298.75 250.25 303.7 246.2 307.75 241.25 307.75 236.3 307.75 232.25 303.7 232.25 298.75 232.25 293.8 236.3 289.75 241.25 289.75 242.45 289.75 243.6 290 244.65 290.4L246.9 288.15C245.2 287.25 243.3 286.75 241.25 286.75 234.65 286.75 229.25 292.15 229.25 298.75 229.25 305.35 234.65 310.75 241.25 310.75 247.85 310.75 253.25 305.35 253.25 298.75 253.25 296.7 252.75 294.8 251.85 293.1L249.6 295.35Z" fill="#7B211D"/></g></svg>