<svg width="48" height="48" xmlns="http://www.w3.org/2000/svg" xmlns:xlink="http://www.w3.org/1999/xlink" xml:space="preserve" overflow="hidden"><g transform="translate(-551 -152)"><path d="M587.745 153.5 587.745 153.5C588.524 156.245 590.446 158.522 593.023 159.75L593.023 159.75C590.446 160.978 588.524 163.255 587.745 166L587.745 166C586.965 163.255 585.042 160.978 582.466 159.75L582.466 159.75C585.042 158.522 586.965 156.245 587.745 153.5Z" fill="#FFFFFF"/><path d="M594.755 164 594.755 164C595.161 165.428 596.161 166.612 597.5 167.25L597.5 167.25C596.161 167.888 595.161 169.072 594.755 170.5L594.755 170.5C594.35 169.072 593.351 167.888 592.011 167.25L592.011 167.25C593.351 166.612 594.35 165.428 594.755 164Z" fill="#FFFFFF"/><path d="M557.943 159 557.943 159C558.535 161.086 559.996 162.817 561.954 163.75L561.954 163.75C559.996 164.683 558.535 166.414 557.943 168.5L557.943 168.5C557.35 166.414 555.889 164.683 553.932 163.75L553.932 163.75C555.889 162.817 557.35 161.086 557.943 159Z" fill="#FFFFFF"/><path d="M574.987 157.997 574.987 157.997 553.998 177.986 556.247 179.885 574.987 162.094 574.987 162.094 593.727 179.885 595.976 177.986 574.987 157.997 574.987 157.997Z" fill="#FFFFFF"/><path d="M559.995 179.135 559.995 193.977 571.989 193.977 571.989 181.484 577.985 181.484 577.985 193.977 589.979 193.977 589.979 179.135 574.987 164.893 559.995 179.135 559.995 179.135 559.995 179.135Z" fill="#FFFFFF"/></g></svg>