<svg width="48" height="48" xmlns="http://www.w3.org/2000/svg" xmlns:xlink="http://www.w3.org/1999/xlink" xml:space="preserve" overflow="hidden"><g transform="translate(-129 -274)"><path d="M136 312 170 312 170 315 136 315Z" fill="#FFFFFF"/><path d="M136 281 140 281 140 310 136 310Z" fill="#FFFFFF"/><path d="M161 306 170 306 170 310 161 310Z" fill="#FFFFFF"/><path d="M161 289 170 289 170 304 161 304Z" fill="#FFFFFF"/><path d="M161 283 170 283 170 287 161 287Z" fill="#FFFFFF"/><path d="M155 292C154.45 292 154 291.55 154 291 154 290.45 154.45 290 155 290 155.55 290 156 290.45 156 291 156 291.55 155.55 292 155 292ZM155 308C154.45 308 154 307.55 154 307 154 306.45 154.45 306 155 306 155.55 306 156 306.45 156 307 156 307.55 155.55 308 155 308ZM159 288 151 288 151 310 159 310 159 288Z" fill="#FFFFFF"/><path d="M147 289 144 289 144 286 147 286 147 289ZM149 284 142 284 142 310 149 310 149 284Z" fill="#FFFFFF"/></g></svg>