<svg width="48" height="48" xmlns="http://www.w3.org/2000/svg" xmlns:xlink="http://www.w3.org/1999/xlink" xml:space="preserve" overflow="hidden"><g transform="translate(-199 -356)"><path d="M228.65 374.65C226.55 374.65 224.9 372.95 224.9 370.9 224.9 368.85 226.6 367.15 228.65 367.15 230.75 367.15 232.4 368.85 232.4 370.9 232.4 372.95 230.7 374.65 228.65 374.65ZM237.1 368.55C236.9 367.85 236.65 367.2 236.3 366.6L237.1 364.25 235.3 362.45 232.95 363.25C232.35 362.9 231.7 362.65 231 362.45L229.9 360.25 227.4 360.25 226.3 362.45C225.6 362.65 224.95 362.9 224.35 363.25L222 362.45 220.2 364.25 221 366.6C220.65 367.2 220.4 367.85 220.2 368.55L218 369.65 218 372.15 220.2 373.25C220.4 373.95 220.65 374.6 221 375.2L220.2 377.55 221.95 379.3 224.3 378.5C224.9 378.85 225.55 379.1 226.25 379.3L227.35 381.5 229.85 381.5 230.95 379.3C231.65 379.1 232.3 378.85 232.9 378.5L235.25 379.3 237.05 377.55 236.25 375.2C236.6 374.6 236.9 373.9 237.1 373.25L239.3 372.15 239.3 369.65 237.1 368.55Z" fill="#FFFFFF"/><path d="M217.35 392.85C215.25 392.85 213.6 391.15 213.6 389.1 213.6 387 215.3 385.35 217.35 385.35 219.45 385.35 221.1 387.05 221.1 389.1 221.1 391.15 219.45 392.85 217.35 392.85L217.35 392.85ZM225 384.8 225.8 382.45 224 380.65 221.65 381.45C221.05 381.1 220.35 380.85 219.7 380.65L218.6 378.45 216.1 378.45 215 380.65C214.3 380.85 213.65 381.1 213.05 381.45L210.7 380.65 208.95 382.4 209.7 384.75C209.35 385.35 209.1 386.05 208.9 386.7L206.7 387.8 206.7 390.3 208.9 391.4C209.1 392.1 209.35 392.75 209.7 393.35L208.95 395.7 210.7 397.45 213.05 396.7C213.65 397.05 214.3 397.3 215 397.5L216.1 399.7 218.6 399.7 219.7 397.5C220.4 397.3 221.05 397.05 221.65 396.7L224 397.5 225.75 395.7 225 393.4C225.35 392.8 225.6 392.15 225.8 391.45L228 390.35 228 387.85 225.8 386.75C225.6 386.05 225.35 385.4 225 384.8Z" fill="#FFFFFF"/></g></svg>