<svg width="48" height="48" xmlns="http://www.w3.org/2000/svg" xmlns:xlink="http://www.w3.org/1999/xlink" xml:space="preserve" overflow="hidden"><g transform="translate(-592 -312)"><path d="M594 336C594 337.1 594.9 338 596 338L596 334C594.9 334 594 334.9 594 336Z" fill="#FFFFFF"/><path d="M636 334 636 338C637.1 338 638 337.1 638 336 638 334.9 637.1 334 636 334Z" fill="#FFFFFF"/><path d="M599.5 328.5 599 328.5C597.9 328.5 597 329.4 597 330.5L597 341.5C597 342.6 597.9 343.5 599 343.5L599.5 343.5C600.6 343.5 601.5 342.6 601.5 341.5L601.5 330.5C601.5 329.4 600.6 328.5 599.5 328.5Z" fill="#FFFFFF"/><path d="M633 328.5 632.5 328.5C631.4 328.5 630.5 329.4 630.5 330.5L630.5 341.5C630.5 342.6 631.4 343.5 632.5 343.5L633 343.5C634.1 343.5 635 342.6 635 341.5L635 330.5C635 329.4 634.1 328.5 633 328.5Z" fill="#FFFFFF"/><path d="M627.5 324 626.5 324C625.4 324 624.5 324.9 624.5 326L624.5 333 607.5 333 607.5 326C607.5 324.9 606.6 324 605.5 324L604.5 324C603.4 324 602.5 324.9 602.5 326L602.5 346C602.5 347.1 603.4 348 604.5 348L605.5 348C606.6 348 607.5 347.1 607.5 346L607.5 339 624.5 339 624.5 346C624.5 347.1 625.4 348 626.5 348L627.5 348C628.6 348 629.5 347.1 629.5 346L629.5 326C629.5 324.9 628.6 324 627.5 324Z" fill="#FFFFFF"/></g></svg>