<svg width="48" height="48" xmlns="http://www.w3.org/2000/svg" xmlns:xlink="http://www.w3.org/1999/xlink" xml:space="preserve" overflow="hidden"><g transform="translate(-592 -312)"><path d="M614.805 346.07C614.805 347.324 613.789 348.34 612.535 348.34 611.281 348.34 610.265 347.324 610.265 346.07 610.265 344.816 611.281 343.8 612.535 343.8 613.789 343.8 614.805 344.816 614.805 346.07Z" fill="#FFFFFF"/><path d="M617 353.5 617 351.23C616.993 350.876 616.828 350.544 616.55 350.325 615.898 349.822 615.151 349.455 614.355 349.245 613.754 349.06 613.129 348.966 612.5 348.965 611.872 348.975 611.248 349.069 610.645 349.245 609.857 349.478 609.115 349.843 608.45 350.325 608.172 350.544 608.007 350.876 608 351.23L608 353.5Z" fill="#FFFFFF"/><path d="M624.735 346.07C624.735 347.324 623.719 348.34 622.465 348.34 621.211 348.34 620.195 347.324 620.195 346.07 620.195 344.816 621.211 343.8 622.465 343.8 623.719 343.8 624.735 344.816 624.735 346.07Z" fill="#FFFFFF"/><path d="M627 353.5 627 351.23C626.993 350.876 626.828 350.544 626.55 350.325 625.898 349.822 625.151 349.455 624.355 349.245 623.754 349.06 623.129 348.966 622.5 348.965 621.872 348.975 621.248 349.069 620.645 349.245 619.857 349.478 619.115 349.843 618.45 350.325 618.172 350.544 618.007 350.876 618 351.23L618 353.5Z" fill="#FFFFFF"/><path d="M634.735 346.07C634.735 347.324 633.719 348.34 632.465 348.34 631.211 348.34 630.195 347.324 630.195 346.07 630.195 344.816 631.211 343.8 632.465 343.8 633.719 343.8 634.735 344.816 634.735 346.07Z" fill="#FFFFFF"/><path d="M637 353.5 637 351.23C636.993 350.876 636.828 350.544 636.55 350.325 635.898 349.822 635.151 349.455 634.355 349.245 633.754 349.06 633.129 348.966 632.5 348.965 631.872 348.975 631.248 349.069 630.645 349.245 629.857 349.478 629.115 349.843 628.45 350.325 628.172 350.544 628.007 350.876 628 351.23L628 353.5Z" fill="#FFFFFF"/><path d="M605.71 325.08C605.71 326.72 604.38 328.05 602.74 328.05 601.1 328.05 599.77 326.72 599.77 325.08 599.77 323.44 601.1 322.11 602.74 322.11 604.38 322.11 605.71 323.44 605.71 325.08Z" fill="#FFFFFF"/><path d="M620.255 323.935C619.961 323.645 619.489 323.645 619.195 323.935L612.735 330.395C612.219 330.249 611.664 330.39 611.28 330.765 611.175 330.87 609.31 333.92 609.31 333.92L608.75 331.535C608.676 331.228 608.522 330.945 608.305 330.715 607.383 329.97 606.323 329.416 605.185 329.085 604.381 328.913 603.562 328.814 602.74 328.79 601.91 328.803 601.086 328.927 600.29 329.16 599.142 329.461 598.077 330.018 597.175 330.79 596.956 331.018 596.802 331.302 596.73 331.61 596.73 331.61 594.575 340.66 594.575 340.81 594.575 341.638 595.247 342.31 596.075 342.31 596.739 342.293 597.313 341.841 597.485 341.2L599.045 334.745 599.045 355.5 602 355.5 602 342.145 603.5 342.145 603.5 355.5 606.45 355.5 606.45 334.65 607 337C607.038 337.162 607.146 337.3 607.295 337.375 607.87 337.816 608.57 338.063 609.295 338.08 609.767 338.146 610.234 337.934 610.495 337.535L613.545 332.535C613.74 332.228 613.813 331.858 613.75 331.5L620.25 325C620.544 324.707 620.547 324.231 620.255 323.935Z" fill="#FFFFFF"/><path d="M630.5 317 606 317C604.895 317 604 317.895 604 319L604 320.8C604.765 321.008 605.457 321.423 606 322L606 319 630.5 319 630.5 335.5 613.435 335.5 612.215 337.5 630.5 337.5C631.605 337.5 632.5 336.605 632.5 335.5L632.5 319C632.5 317.895 631.605 317 630.5 317Z" fill="#FFFFFF"/></g></svg>