<svg width="48" height="48" xmlns="http://www.w3.org/2000/svg" xmlns:xlink="http://www.w3.org/1999/xlink" xml:space="preserve" overflow="hidden"><g transform="translate(-357 -71)"><path d="M371.5 84C372.35 84 373 83.35 373 82.5L373 79.5C373 78.65 372.35 78 371.5 78 370.65 78 370 78.65 370 79.5L370 82.5C370 83.35 370.65 84 371.5 84Z" fill="#FFFFFF"/><path d="M367 105 375 105 375 109 367 109 367 105ZM367 99 375 99 375 103 367 103 367 99ZM367 93 375 93 375 97 367 97 367 93ZM385 93 385 97 377 97 377 93 385 93ZM395 93 395 97 387 97 387 93 395 93ZM395 103 387 103 387 99 395 99 395 103ZM395 109 387 109 387 105 395 105 395 109ZM377 103 377 99 385 99 385 103 377 103ZM377 109 377 105 385 105 385 109 377 109ZM364 112 398 112 398 90 364 90 364 112Z" fill="#FFFFFF"/><path d="M390.5 84C391.35 84 392 83.35 392 82.5L392 79.5C392 78.65 391.35 78 390.5 78 389.65 78 389 78.65 389 79.5L389 82.5C389 83.35 389.65 84 390.5 84Z" fill="#FFFFFF"/><path d="M394 81 394 82.5C394 84.45 392.45 86 390.5 86 388.55 86 387 84.45 387 82.5L387 81 375 81 375 82.5C375 84.45 373.45 86 371.5 86 369.55 86 368 84.45 368 82.5L368 81 364 81 364 88 398 88 398 81 394 81Z" fill="#FFFFFF"/></g></svg>